# xmcd
#
# Track frame offsets: 
#        183
#        22953
#        49258
#        70458
#        94898
#        116318
#        144793
#        160338
#        174708
#
# Disc length: 2680 seconds
#
# Revision: 1
# Processed by: cddbd v1.5.2PL0 Copyright (c) Steve Scherf et al.
# Submitted via: ExactAudioCopy v1.1
#
DISCID=740a7609
DTITLE=Olivia Newton-John - The Banks Of The Ohio
DYEAR=1900
DGENRE=country
TTITLE0=Take Me Home Country Roads
TTITLE1=Angel Of The Morning
TTITLE2=If Not For You
TTITLE3=Love Song
TTITLE4=The Banks Of The Ohio
TTITLE5=If You Could Read My Mind
TTITLE6=Help Me Make It Through The Night
TTITLE7=Just A Little Too Much
TTITLE8=Me and Bobby McGee
EXTD=
EXTT0=
EXTT1=
EXTT2=
EXTT3=
EXTT4=
EXTT5=
EXTT6=
EXTT7=
EXTT8=
PLAYORDER=
